<?xml version="1.0" encoding="UTF-8"?>
<svg width="1067px" height="319px" viewBox="0 0 1067 319" version="1.1" xmlns="http://www.w3.org/2000/svg" xmlns:xlink="http://www.w3.org/1999/xlink">
    <!-- Generator: Sketch 41.2 (35397) - http://www.bohemiancoding.com/sketch -->
    <title>Artboard</title>
    <desc>Created with Sketch.</desc>
    <defs></defs>
    <g id="Page-1" stroke="none" stroke-width="1" fill="none" fill-rule="evenodd">
        <g id="Artboard" fill="#FFFFFF">
            <path d="M71.8779026,167.429065 L61.5391234,167.429065 L61.5391234,260.478078 L40,260.478078 L40,59.4462597 L61.5391234,59.4462597 L61.5391234,153.069649 L71.5907143,149.049013 L123.858987,59.4462597 L148.557182,59.4462597 L96.0017208,146.17713 L85.9501299,155.367156 L97.7248506,166.854688 L156.024078,260.478078 L128.741188,260.478078 L71.8779026,167.429065 Z M181.583838,59.4462597 L270.899403,59.4462597 L270.899403,79.2622532 L203.122961,79.2622532 L203.122961,147.325883 L265.442825,147.325883 L265.442825,167.141877 L203.122961,167.141877 L203.122961,240.662084 L272.335344,240.662084 L272.335344,260.478078 L181.583838,260.478078 L181.583838,59.4462597 Z M410.76011,79.2622532 L361.363721,79.2622532 L361.363721,260.478078 L339.824597,260.478078 L339.824597,79.2622532 L290.428208,79.2622532 L290.428208,59.4462597 L410.76011,59.4462597 L410.76011,79.2622532 Z M416.503877,159.962169 C416.503877,125.882319 421.9604,100.035629 432.87361,82.4213247 C443.786821,64.8070202 460.443576,56 482.844377,56 C494.906346,56 505.149293,58.4410762 513.573526,63.3233019 C521.997759,68.2055277 528.842345,75.1458425 534.10749,84.1444545 C539.372636,93.1430666 543.249639,104.056113 545.738617,116.883922 C548.227595,129.711731 549.472065,144.071003 549.472065,159.962169 C549.472065,194.042019 543.967677,219.888708 532.958737,237.503013 C521.949797,255.117318 505.245177,263.924338 482.844377,263.924338 C470.973867,263.924338 460.826648,261.483261 452.402416,256.601036 C443.978183,251.71881 437.085732,244.778495 431.724857,235.779883 C426.363982,226.781271 422.486978,215.868224 420.093731,203.040416 C417.700483,190.212607 416.503877,175.853335 416.503877,159.962169 Z M439.191753,159.962169 C439.191753,171.258299 440.005445,181.979889 441.632854,192.12726 C443.260262,202.274631 445.797067,211.177379 449.243344,218.835773 C452.689621,226.494166 457.18886,232.620789 462.741195,237.215825 C468.29353,241.810861 474.994524,244.108344 482.844377,244.108344 C497.203864,244.108344 508.116911,237.215894 515.583844,223.430786 C523.050778,209.645678 526.784188,188.489684 526.784188,159.962169 C526.784188,148.857499 525.970496,138.231637 524.343088,128.084266 C522.715679,117.936895 520.178874,108.986282 516.732597,101.232159 C513.28632,93.4780359 508.787082,87.3035489 503.234747,82.708513 C497.682412,78.113477 490.88569,75.8159935 482.844377,75.8159935 C468.676349,75.8159935 457.859031,82.7084441 450.392097,96.4935519 C442.925164,110.27866 439.191753,131.434654 439.191753,159.962169 Z M612.079117,167.429065 L601.740338,167.429065 L601.740338,260.478078 L580.201214,260.478078 L580.201214,59.4462597 L601.740338,59.4462597 L601.740338,153.069649 L611.791929,149.049013 L664.060201,59.4462597 L688.758396,59.4462597 L636.202935,146.17713 L626.151344,155.367156 L637.926065,166.854688 L696.225292,260.478078 L668.942403,260.478078 L612.079117,167.429065 Z M726.092877,59.4462597 L747.632,59.4462597 L747.632,260.478078 L726.092877,260.478078 L726.092877,59.4462597 Z" id="KETOKI"></path>
            <g id="flying-pig" transform="translate(792.000000, 40.000000)" opacity="0.97000002">
                <g id="Group">
                    <path d="M215.272951,0.747806166 C207.966594,1.32085595 205.98224,11.3415147 196.58759,17.1164523 C177.296921,3.27132454 168.975009,11.5310759 150.081805,14.623765 C136.819888,19.2757682 129.827329,12.6743512 106.233493,8.05968868 C109.428618,19.8361056 113.545842,19.9006124 114.122867,21.0216622 C128.117611,22.9131771 132.272911,19.710897 141.278924,28.665903 C129.589225,18.7841145 120.943695,25.8873053 102.994697,18.3627959 C99.4447165,16.673977 99.8829897,16.2535943 92.4478494,12.1310778 C89.7508513,25.6711926 96.2505211,37.0370247 104.987802,44.7021908 C110.548249,49.5803412 115.150645,51.9649614 126.579774,49.936834 C131.529587,49.0584775 118.224183,58.2994739 117.207434,64.8217369 C121.738336,70.2179408 124.588702,74.5169076 133.959009,79.7659911 C113.400024,72.5028137 115.003432,51.864334 91.3682508,55.6700146 C53.3370392,61.7937082 51.8607064,60.7879548 0.10064679,50.2691923 C12.4432004,84.6582467 41.8210002,69.8070582 92.3648033,77.1071247 C56.1975542,73.7276657 35.5834981,78.3301421 16.0454875,71.789392 C31.0093618,101.217236 68.1988585,88.285318 99.2576251,86.2469779 C64.7109485,91.3713153 48.5002807,93.8871905 33.5682031,88.9889338 C51.0675701,117.245752 83.9348218,101.377353 103.160789,95.3037414 C89.6022534,101.444186 78.2968723,107.288422 58.3159247,105.773028 C76.7137091,126.57958 100.022993,109.149272 108.475736,102.366355 C97.83939,113.538462 86.5103175,118.769923 68.032312,116.242314 C51.1319209,127.592552 48.8486755,159.698161 48.8486755,159.698161 C48.8486755,159.698161 52.4810643,159.617757 52.9179317,159.781251 C52.6747463,159.882899 51.876428,160.035944 50.0113201,160.279788 C42.313725,161.286188 36.6900488,162.710104 33.4851571,171.912329 C26.8316275,191.016693 48.9986872,189.25722 42.9524063,174.820464 C49.7705876,171.921773 53.6298024,173.149372 56.6550038,176.648434 C61.1725226,181.873617 58.9250069,190.896669 56.4058656,197.337738 C53.4882388,204.797571 46.2381303,209.853591 40.2949328,215.201997 C36.2266811,218.863099 26.0121052,218.139161 27.0906116,224.840387 C28.1529738,231.441241 13.3885456,238.889824 19.5334214,239.464152 C25.6782973,240.038481 32.3559062,232.979262 47.0216625,230.24121 C54.891996,228.77184 89.3014805,224.41307 97.4543407,222.288352 C115.261844,217.647534 122.948544,207.805751 126.188272,203.367667 C129.427998,198.929583 132.588957,176.325866 124.313802,167.48484 C132.749561,172.010866 130.955814,192.881056 129.180776,200.148455 C162.267052,201.475567 203.425442,143.023318 194.515051,111.154204 C200.21384,103.133709 208.768083,104.033339 234.705725,82.5910366 C223.598206,79.2468793 229.779973,79.8985329 225.93193,80.5407927 C230.258194,77.4735298 231.664483,71.6587752 233.250099,63.6892114 C222.096851,67.3086704 219.452479,76.5296588 209.044497,79.4336328 C198.636518,82.3376121 199.369309,86.4100834 168.933257,83.5881115 C189.494966,83.5679041 195.218107,84.8748991 209.62582,77.1071247 C219.495519,71.4674697 224.140012,56.2245079 227.89595,29.8291571 C220.435983,37.9282847 215.525985,40.248486 211.28674,39.799906 C219.358269,39.0006959 226.673105,30.4555727 233.875265,20.9385727 C237.689146,8.4185947 225.521906,1.56223927 216.767779,0.747806166 C216.22933,0.697713124 215.760042,0.709603574 215.272951,0.747806166 L215.272951,0.747806166 Z M35.0630319,17.365721 C36.2197132,27.4239466 35.1808643,32.7292863 45.1116034,43.8712951 C60.3025269,56.388996 76.8351928,56.9163582 76.8351928,56.9163582 C76.8351928,56.9163582 90.0314459,54.155402 96.7662437,54.0082231 C101.253725,53.9101641 102.770454,54.1919508 105.474216,55.3376563 C109.741353,57.1458317 113.295194,61.8821847 116.543065,63.7534443 C117.474903,59.5245546 125.500175,51.2662672 125.500175,51.2662672 C125.500175,51.2662672 118.775827,51.9635496 115.451604,51.4324463 C112.338714,50.9351001 109.42941,49.5004821 106.482631,48.3581321 C82.2861067,38.9780929 70.1048197,46.7231712 35.0630319,17.365721 Z M178.151368,29.5798884 C179.492194,29.5214465 181.115713,29.9126694 182.968039,30.9924111 C185.461581,32.445923 183.952593,37.8252483 182.054532,36.7255917 C178.230968,34.5103732 175.873759,37.3800026 172.753375,35.7285168 C172.627783,35.9605827 172.060904,36.260556 170.511132,36.476323 C168.004026,36.8253737 169.001299,35.815967 171.756823,34.1498149 C172.31524,33.8121628 174.128889,29.7552034 178.151368,29.5798884 Z M43.3676365,44.0374742 L49.4299978,57.9134331 C49.4299978,57.9134331 56.2136346,59.1117656 72.9320287,57.6641644 C65.9336361,55.4658988 60.044372,54.3700443 54.2466684,51.2662672 C50.6826431,50.0996603 43.3676365,44.0374742 43.3676365,44.0374742 Z M51.1739648,174.238837 C48.6846642,173.986324 46.9325574,177.352223 45.3607416,179.307301 C43.9976171,181.002801 44.7935331,184.479979 41.0423472,186.203735 C36.2665618,188.184857 35.1878003,185.244363 33.319065,185.705198 C26.3289,189.821995 20.4068825,201.217559 14.7404794,199.628636 C10.0957382,200.443539 19.5611787,202.181198 9.84076163,210.56085 C12.5938388,212.953705 19.9557551,205.551572 26.6397898,204.400352 C34.7632211,203.00123 42.3315381,210.290188 49.2639057,205.812875 C55.9701755,197.778483 58.9978935,189.511001 58.0667865,182.880152 C57.4734391,178.654515 55.4013619,174.667672 51.1739648,174.238837 L51.1739648,174.238837 Z" id="Shape"></path>
                    <path d="M32.0467198,180.959356 C28.0394545,179.113746 29.2905452,172.965708 24.5716244,172.15779 C23.1554196,173.949007 23.9831348,174.36923 25.5640844,175.034423 C29.0025149,176.688839 26.989423,180.353158 23.7950203,180.4534 C20.6006149,180.553639 18.513228,177.723842 18.261544,174.566359 C18.1985087,170.662715 21.1012138,166.714569 24.8628861,165.730536 C28.8761813,164.680685 31.9192807,168.123479 33.3087301,170.945591 C31.3588993,175.304423 31.3201799,177.668602 32.0467198,180.959356 L32.0467198,180.959356 Z" id="Shape"></path>
                    <path d="M14.8637702,169.630633 C16.3653782,169.385885 18.3586002,170.800646 18.3586002,170.800646 C18.3586002,170.800646 16.9144707,172.953799 18.1645515,176.650796 C15.2544587,175.71752 16.5353821,172.988396 14.7668096,172.263185 C13.670251,171.813541 12.6277242,172.331066 11.8544403,174.408241 C10.2944649,172.569409 12.4896432,170.017602 14.8638659,169.630633 L14.8637702,169.630633 Z" id="Shape"></path>
                </g>
            </g>
        </g>
    </g>
</svg>